<svg id="Layer_1" xmlns="http://www.w3.org/2000/svg" xmlns:xlink="http://www.w3.org/1999/xlink" viewBox="0 0 105 105"><style>.st0{fill:#405365}.st1{fill:#f26522}.st2{clip-path:url(#SVGID_2_)}.st3{fill:none}</style><path class="st0" d="M94.4 28.9C90.1 21.8 84.3 16.3 77 12.6S61.4 7 52.3 7C42.8 7 34.5 9 27 12.8S14 22.3 9.8 29.4 3.5 44.2 3.5 52.3c0 8.4 2.1 16 6.3 22.9s10 12.4 17.5 16.4c7.5 4 15.8 5.9 25 5.9s17.6-1.9 25-5.8 13.2-9.3 17.5-16.5 6.4-14.7 6.4-22.9c-.3-8.5-2.4-16.3-6.8-23.4z"/><circle class="st1" cx="52.3" cy="52.3" r="39.1"/><defs><circle id="SVGID_1_" cx="52.3" cy="52.3" r="39.1"/></defs><clipPath id="SVGID_2_"><use xlink:href="#SVGID_1_" overflow="visible"/></clipPath><g class="st2"><path class="st3" d="M38.7 24.3h4.8c-.7-.6-1.5-1.3-2.3-1.8-.6.4-1.3.9-2.5 1.8z"/><path class="st3" d="M44.6 58.6c-1.2.1-2.6-.6-2.8-2.5 0-.6-1.3-1.2-1.9-1.8-.1-.1-.4 0-.4 0-1.5-2.3-4.1-1.8-6.2-2.8-1.2-.6-2.3-1.3-3.2.1-.9 1.4-2.2 1.5-3.4.8-.6-.3-.6-1.7-1-2.5-.1-.2-.1-.5-.1-.7l-1.8-.6c.2-.6.4-1.3.7-2.6-1.2.7-1.8 1.3-2.6 1.5-.7.2-1.9.5-2.4 0-.5-.4-.6-1.6-.4-2.3.7-2.8 4.5-4.3 7.1-3.1.6.3 1.1 1.2 1.8 2 .5-3.4 8.3-11.3 11.2-11.5-.2-.5-.4-.9-.6-1.4.5 0 .9 0 1.4.1.8.1 1.7.2 2.6.3-.1.3-.2.6-.4 1.3.8.3 1.7.5 2.4.6l.3-.6c-.6-.5-1.1-.8-1.8-1.4 3.7-1.9-1.7-3 0-4.9-1.1.4-1.8.6-2.7.8.3-2-1.2-2.3-2.4-2.1-.6.1-.9 1.4-1.3 2.2-.2.3-.1.8-.4 1-.9.7-2 1.4-3.1 2.2-.1-.6-.3-1.2-.4-1.8-.7-.3-1.5-.3-2-.6-.8-.6-1.3-1.4 0-2.2 2.3-1.7 3.4-1.8 4.9-.9 2.6-2.6 3.9-3.3 5.5-2.6-.8-.6-1.8-1.1-2.6-1.8v.2c-.1-.3-.2-.6-.3-.8-.4.6-.7 1.3-1.2 1.8-.2.3-.6.4-1 .5-.1-.6-.1-1.3-.2-2.1h-2.7c.5.6.6 1.1 1.1 1.7-1.5.4-2.9.7-4.2 1.1-.1-.2-.3-.5-.4-.6l2.4-1.6c-1.2-.4-2.4-.6-3.5-1.1-1.6-.6-2.8-.3-3.8 1.1 1.1.6 2.1 1.3 3.2 1.9 0 .1-.1.2-.1.3-.7-.1-1.5-.2-2.1-.5-2.4-1-4.7-1.8-7.2-.2-.4.3-1.1 0-1.6-.1-1.8-.3-3.5-.9-5.3-.9-1.3 0-2.6.6-3.8 1.1-1.1.4-2.2.9-3.4 1.5.2.2.4.5.7.7-1.2.2-2.3.5-3.7.7 1.5 2.2 3.3 1.3 5 1.5.2 0 .4-.2.6-.3 3.5-.9 5.3.6 4.7 4.2-.2 1.3-.6 2.6-1.4 3.6-1.4 2.5-1.4 3.3.3 5.8.4.5.3 1.4.3 2 .1 1.8 1 3 2.8 3.5-.6-1.7-1.2-3.1-1.8-4.7.3-.1.5-.2.7-.3.7 2 1.7 4 2.2 6 .4 1.4 1.9 2.9 3.9 2.8 2-.1 3.3 1.3 4.9 2.1 1.4.7 2.7 1.8 4.1 2.7l.9-.3c-.4.9-.8 1.8-1.2 2.8-.5 1.2-1.5 2.9-1 3.7.9 1.9 2.4 3.8 4.1 5.3 1.2 1.1 2.4 1.8 2.3 3.8-.2 3.1 0 6.2 1.3 9.1.5 1-.1 2.6.5 3.6.7 1.4 1.8 2.6 2.8 3.8.6-.8 1.1-1.8 1.8-2.5.2-.9.2-1.6-.9-1.6v-3c2.9 0 4-2.7 5.6-4.8.4-.5.5-1.4.4-1.9-.2-1.6.1-2.5 1.9-2.6.7 0 1.8-.8 2.1-1.5.8-2.3 1.3-4.7 1.9-7.3-1.5-1.5-3.2-2.6-5.7-2.4zM84.5 73.7c-.3-1.3-.6-2.1-.6-2.8.2-1.3.7-2.5 1-3.6 1.1-.8 2.2-1.8 3.4-2.8.4 3.6-1.3 6.1-3.8 9.2zM61.9 28c.7 1.2 1.3 2.3 2.1 3.8-.8.2-1.7.5-2.5.6-.9-3.8-.9-3.8.4-4.4z"/><path class="st3" d="M137.4 24.4c-1.8-.5-3.7-1-5.5-1.2-5-.6-10.1-1.2-15.1-1.6-1.1-.1-2.3.6-3.4.7-.6.1-1.1.2-1.6.1-1.5-.3-3-.7-4.5-1-1.1-.2-2.5 0-3.4-.6-3-1.8-6-1-9 0-1.4.5-2.9.9-2.6 3 0 .1-.6.3-.6.3-.8-1-1.5-1.8-2.1-2.6-.4.6-.7 1.3-1.1 1.8-2.6.2-5.1.4-7.8.5-.8 2-2.6 1.8-4.4 1.2 1-.2 1.9-.4 3-.6-2.1-2.6-7.9-2.6-10.2-.8-.8.6-1.5 1.5-2.2 2.2-.6.6-1 1.1-1.5 1.6.7.6 1.5 1.1 2.1 1.7.4.3.6.6.6.6-1.6 1-2.8 2.3-4.3 2.7-1.8.6-2.4 1.3-1.2 3-1 0-1.8-.2-2.6.1-.6.2-1.5.6-1.6 1.2-.2.6.1 1.7.6 2.1.8.9 3 .6 3.9-.5.7-.8 1.6-1.8 2.6-2.4 2.2-1.2 3.1 1 5.1 1.9-.7.3-1.1.5-1.5.6.2.2.3.4.5.6.5-.3 1.2-.6 1.2-.9.1-.5-.3-1.1-.6-1.6-.5-.6-1-1.1-1.9-1.9 3.9-.6 3.2 3.1 5.1 4.2.4-.6.7-1.4 1.5-2.7.3 2.9 1.6 3.4 3.6 3.2.5 0 1.5.8 1.5 1.3 0 .6-.7 1.6-1.3 1.6-1.2.1-2.4-.1-3.5-.6s-2-1.1-3 .3c-.1.2-.6.3-.7.2-1.6-.8-4.3-.2-4.1-3.2-1.5.2-2.8.3-4.1.5-1.3.2-2.6.3-3.8.7-.7.3-1.3 1-1.8 1.7-.6.8-1 1.8-1.7 2.5s-1.7 1.3-2.1 1.7c0 1.5.2 2.5 0 3.4-.6 3.1 2.6 6.8 5.7 6.6 2.6-.3 5.3-1.3 7 .2.8 2.4 1.2 4.2 2 5.7.7 1.5 1.2 2.7.2 4.2-.3.4-.4 1.1-.3 1.7.9 2.9 1.8 5.7 2.9 8.6 3.5.6 3.6.6 5.9-2 1.7-1.9 2.9-4.2 4.5-6 1.5-1.7 1.8-3.6 1-5.5-.6-1.5-.1-2.1.8-3.1 2-2.2 3.9-4.7 5.8-7-.2-.2-.4-.4-.5-.6-1 .2-2.1.6-3.1.6-.7 0-1.9-.2-2.2-.7-1.4-2.2-2.6-4.6-3.8-6.9.3-.2.5-.3.7-.5 1.2 1.9 2.4 4 3.6 5.9.4.6 1 1.1 1.6 1.2 1.5.3 5.9-3 6.5-4.6-6.1-2.9-6.2-3-5.2-5.2 1.1 2.2 3 2.7 5.3 2.8 1.8.1 3.5.4 5.2.9.7.2 1.8 1.2 1.7 1.8-.1 3.4 1.9 5.5 4.3 7.6.3.2.9 0 1.4-.1-.1-.5-.1-1-.4-1.4-.1-.2-.6-.3-.7-.4.3-1.5.2-2.9.7-4.1.5-.9 1.5-2.1 2.5-2.3 2.9-.6 5.8 2.2 5.9 5.2 0 2.5 1.9 5 4.4 5.8-.6-2.2-3.1-3.5-3.2-6.7.7.6 1.1.9 1.3 1.2.8 1 1.9 1.3 2.7.2.3-.4-.4-1.6-.6-2.3-.1-.3-.6-.5-.8-.7-.3-.7-.4-1.5-.5-2.2 0-.2.7-.6.7-.6.4.4.7.8 1.1 1.3 1.3-.7 2.2-1.5 3.2-1.9 2.3-1.1 2.7-2.5 1-4.4-.4-.4-.8-.6-1-1.1-.5-1-.8-2.1-1.2-3.2.3-.2.6-.3.7-.5 1.7 1 3.3 2.1 5.3 3.3-.2-2.2-3.6-2.1-1.9-4.3.8-.3 1.9-.6 2.1-1.3.3-.8-.2-1.8-.4-3 .5.1.9.3 1.4.4-.7-2-2.4-1.8-3.9-2.1-.6-.2-1-.8-1.5-1.3.6-.3 1.3-.9 1.8-.7 1.7.4 3.1.1 4.4-1 .5-.4 1-.6 1.8-.9-.5 3.2.5 4.4 3.9 5.4-.8-1.6-1.5-2.8-2.1-4.1 1.6 0 3-.4 2.9-2.5.9 0 1.8.1 2.7.1.1-.1.1-.3.2-.5zm-64.9 1.3c0 1.4.4 2.7-.1 3.4-.5.7-1.8 1.1-2.7 1.6-.2-.3-.3-.5-.5-.7 2.1-1.4.6-5.5 4.9-5.7-.8.7-1.4 1.2-1.6 1.4zm4.2 11.8c-.6-2.5 1.4-2.1 2.5-2.7.6.9 1.3 1.8 1.9 2.7h-4.4zm12 1.8c-.8-.2-1.6-.3-2-.4-.4-1.1-.7-1.8-.9-2.7-.2-.7-.3-1.5-.4-2.1.7-.1 1.5-.2 2.2-.3 0 .2.1.4.1.6-.4.2-.8.5-1.2.6.8 1.2 1.8 2.3 2.6 3.5-.1.4-.3.6-.4.8z"/></g><g><path class="st0" d="M67.7 61.5s6.6-5.8.6 4.6c-1.5 2.1-7.6 10.4-11.2 13.7-3.6 3.2-6.7 5-9.5 5.4-3.9.6-6.9-.9-9.3-4.3-2.4-3.4-3.9-7.2-4.4-11.6-.2-1.7-.3-3.2-.1-4.8.2-1.6.5-2.9.8-3.9.4-1 1.1-2.7 2.3-5 5.5-10.1 11-15.6 16.5-16.3 2.9-.4 4.4.4 4.7 2.4.2 1.4-.5 3.6-1.9 6.7-1.5 3.1-2.9 5.4-4.2 6.8-3.6 4.1-5.9 6.9-7 8.5-1 1.6-1.5 3.2-1.2 5 .2 1.5 1 2.7 2.4 3.5 1.4.8 3.1 1.1 5.2.8 2.2-.3 4.5-1.4 7-3.1s5.5-4.6 9.3-8.4zm-8.6-27.7c-1.2.2-2.3-.1-3.5-.7-1.2-.6-1.8-1.6-2-2.9-.3-1.8.5-4.1 2.1-6.7 1.7-2.6 3.5-4 5.6-4.3 1.4-.2 2.7 0 3.7.7s1.7 1.8 1.8 3.2c.3 1.8-.5 4-2 6.4-1.6 2.6-3.4 4-5.7 4.3zm-18.4 0c-1.2.2-2.3-.1-3.5-.7-1.2-.6-1.8-1.6-2-2.9-.3-1.8.5-4.1 2.1-6.7s3.5-4 5.6-4.3c1.4-.2 2.7 0 3.7.7 1 .6 1.7 1.8 1.8 3.2.3 1.8-.5 4-2 6.4-1.6 2.6-3.5 4-5.7 4.3z"/></g></svg>